<svg width="250" height="66" viewBox="0 0 250 66" fill="none" xmlns="http://www.w3.org/2000/svg">
<path d="M15.3926 14.3675L17.1728 10.3669L15.3926 11.1238C8.06589 19.3411 0 18.1576 0 29.5105C0 39.0254 8.48162 54.0544 23.4523 55.6762V53.1894C12.4601 52.4326 3.06937 40.8634 2.51251 30.0511C1.98906 19.8875 8.58894 21.0711 15.3926 14.3675Z" fill="#0ABEA4"/>
<path d="M40.5233 10.2589L43.6646 10.6915L40.5233 7.44773C28.4573 -3.47139 22.9295 -2.50036 15.3925 11.1296V14.3731C24.6071 4.53411 22.4082 -4.6618 40.5233 10.2589Z" fill="#538AEF"/>
<path d="M49.1099 37.1817L48.3769 39.4523L52.1465 37.5061C56.8585 32.5325 54.9738 17.179 42.3036 8.63722L40.5236 7.45361V10.2648L42.3036 11.5623C53.0889 19.5634 54.5549 31.8837 49.1099 37.1817Z" fill="#0ABEA4"/>
<path d="M49.2145 37.0795C34.0313 42.9181 35.7067 52.5411 27.0156 53.7305V55.8929C38.0104 55.2442 33.6125 46.1618 50.2617 39.1339C51.0779 38.6766 51.5074 38.3566 52.1464 37.512C51.2454 37.0402 50.6041 36.9506 49.2145 37.0795Z" fill="#538AEF"/>
<path d="M11.6232 32.2082L9.84314 35.3438L18.2201 40.5337L23.2463 50.0485V65.402H24.084V50.0485H24.9216V65.402H27.1206V50.0485L32.042 40.8581L40.8379 35.2357L39.0578 32.2082L32.6703 36.2088V28.4239L37.4871 19.5578L34.4505 17.6116L30.7855 24.4233L27.1206 17.6116L23.9792 19.7741L28.796 28.4239V39.1281L25.1311 45.6154L21.4661 38.9119L21.2568 28.4239H17.5918L17.9059 35.9925L11.6232 32.2082Z" fill="black"/>
<path d="M74.9297 43.793V22.377H77.4199V43.793H74.9297Z" fill="black"/>
<path d="M107.64 22.377L101.912 43.793H99.4072L95.1592 29.3789C95.0322 28.9688 94.9102 28.5586 94.793 28.1484C94.6855 27.7285 94.583 27.333 94.4854 26.9619C94.3877 26.5811 94.3047 26.249 94.2363 25.9658C94.1777 25.6729 94.1338 25.4531 94.1045 25.3066C94.085 25.4531 94.0459 25.668 93.9873 25.9512C93.9385 26.2344 93.8701 26.5615 93.7822 26.9326C93.7041 27.3037 93.6064 27.6992 93.4893 28.1191C93.3818 28.5391 93.2646 28.9639 93.1377 29.3936L89.0068 43.793H86.502L80.8184 22.377H83.4111L86.8535 35.8096C86.9707 36.2588 87.0781 36.7031 87.1758 37.1426C87.2832 37.5723 87.376 37.9922 87.4541 38.4023C87.542 38.8125 87.6201 39.2129 87.6885 39.6035C87.7568 39.9941 87.8203 40.375 87.8789 40.7461C87.9277 40.3652 87.9912 39.9697 88.0693 39.5596C88.1475 39.1396 88.2305 38.7148 88.3184 38.2852C88.416 37.8555 88.5186 37.4209 88.626 36.9814C88.7432 36.542 88.8652 36.1025 88.9922 35.6631L92.8447 22.377H95.4082L99.4219 35.7656C99.5586 36.2246 99.6855 36.6787 99.8027 37.1279C99.9199 37.5771 100.022 38.0166 100.11 38.4463C100.208 38.8662 100.291 39.2715 100.359 39.6621C100.438 40.043 100.506 40.4043 100.564 40.7461C100.633 40.2676 100.716 39.7646 100.813 39.2373C100.911 38.71 101.023 38.1582 101.15 37.582C101.287 37.0059 101.434 36.4102 101.59 35.7949L105.032 22.377H107.64Z" fill="black"/>
<path d="M128.03 32.8799C128.03 35.292 127.591 37.3086 126.712 38.9297C125.833 40.541 124.559 41.7568 122.889 42.5771C121.229 43.3877 119.212 43.793 116.839 43.793H111.023V22.377H117.483C119.661 22.377 121.536 22.7773 123.108 23.5781C124.681 24.3691 125.892 25.5459 126.741 27.1084C127.601 28.6611 128.03 30.585 128.03 32.8799ZM125.408 32.9678C125.408 31.0439 125.086 29.457 124.441 28.207C123.807 26.957 122.869 26.0293 121.629 25.4238C120.398 24.8086 118.89 24.501 117.103 24.501H113.514V41.6543H116.546C119.495 41.6543 121.707 40.9268 123.182 39.4717C124.666 38.0166 125.408 35.8486 125.408 32.9678Z" fill="black"/>
<path d="M149.739 24.2666C148.558 24.2666 147.493 24.4717 146.546 24.8818C145.608 25.2822 144.808 25.8682 144.144 26.6396C143.489 27.4014 142.986 28.3242 142.635 29.4082C142.283 30.4922 142.107 31.7129 142.107 33.0703C142.107 34.8672 142.386 36.4297 142.942 37.7578C143.509 39.0762 144.349 40.0967 145.462 40.8193C146.585 41.542 147.986 41.9033 149.666 41.9033C150.623 41.9033 151.521 41.8252 152.361 41.6689C153.211 41.5029 154.036 41.2979 154.837 41.0537V43.2217C154.056 43.5146 153.235 43.7295 152.376 43.8662C151.517 44.0127 150.496 44.0859 149.314 44.0859C147.137 44.0859 145.315 43.6367 143.851 42.7383C142.396 41.8301 141.302 40.5508 140.569 38.9004C139.847 37.25 139.485 35.3018 139.485 33.0557C139.485 31.4346 139.71 29.9551 140.159 28.6172C140.618 27.2695 141.282 26.1074 142.151 25.1309C143.03 24.1543 144.104 23.4023 145.374 22.875C146.653 22.3379 148.118 22.0693 149.769 22.0693C150.853 22.0693 151.897 22.1768 152.903 22.3916C153.909 22.6064 154.817 22.9141 155.628 23.3145L154.632 25.4238C153.948 25.1113 153.196 24.8428 152.376 24.6182C151.565 24.3838 150.687 24.2666 149.739 24.2666Z" fill="black"/>
<path d="M165.296 27.4453C166.663 27.4453 167.835 27.748 168.812 28.3535C169.788 28.959 170.535 29.8086 171.053 30.9023C171.57 31.9863 171.829 33.2559 171.829 34.7109V36.2197H160.74C160.77 38.1045 161.238 39.54 162.146 40.5264C163.055 41.5127 164.334 42.0059 165.984 42.0059C167 42.0059 167.898 41.9131 168.68 41.7275C169.461 41.542 170.271 41.2686 171.111 40.9072V43.0459C170.301 43.4072 169.495 43.6709 168.694 43.8369C167.903 44.0029 166.966 44.0859 165.882 44.0859C164.339 44.0859 162.991 43.7734 161.839 43.1484C160.696 42.5137 159.808 41.5859 159.173 40.3652C158.538 39.1445 158.221 37.6504 158.221 35.8828C158.221 34.1543 158.509 32.6602 159.085 31.4004C159.671 30.1309 160.491 29.1543 161.546 28.4707C162.61 27.7871 163.86 27.4453 165.296 27.4453ZM165.267 29.4375C163.968 29.4375 162.933 29.8623 162.161 30.7119C161.39 31.5615 160.931 32.748 160.784 34.2715H169.28C169.271 33.3145 169.119 32.4746 168.826 31.752C168.543 31.0195 168.108 30.4531 167.522 30.0527C166.937 29.6426 166.185 29.4375 165.267 29.4375Z" fill="black"/>
<path d="M183.255 27.4453C183.577 27.4453 183.914 27.4648 184.266 27.5039C184.617 27.5332 184.93 27.5771 185.203 27.6357L184.896 29.8916C184.632 29.8232 184.339 29.7695 184.017 29.7305C183.694 29.6914 183.392 29.6719 183.108 29.6719C182.464 29.6719 181.854 29.8037 181.277 30.0674C180.711 30.3213 180.213 30.6924 179.783 31.1807C179.354 31.6592 179.017 32.2402 178.772 32.9238C178.528 33.5977 178.406 34.3496 178.406 35.1797V43.793H175.96V27.7383H177.981L178.245 30.6973H178.348C178.68 30.1016 179.08 29.5596 179.549 29.0713C180.018 28.5732 180.56 28.1777 181.175 27.8848C181.8 27.5918 182.493 27.4453 183.255 27.4453Z" fill="black"/>
<path d="M195.53 27.4453C195.853 27.4453 196.189 27.4648 196.541 27.5039C196.893 27.5332 197.205 27.5771 197.479 27.6357L197.171 29.8916C196.907 29.8232 196.614 29.7695 196.292 29.7305C195.97 29.6914 195.667 29.6719 195.384 29.6719C194.739 29.6719 194.129 29.8037 193.553 30.0674C192.986 30.3213 192.488 30.6924 192.059 31.1807C191.629 31.6592 191.292 32.2402 191.048 32.9238C190.804 33.5977 190.682 34.3496 190.682 35.1797V43.793H188.235V27.7383H190.257L190.521 30.6973H190.623C190.955 30.1016 191.355 29.5596 191.824 29.0713C192.293 28.5732 192.835 28.1777 193.45 27.8848C194.075 27.5918 194.769 27.4453 195.53 27.4453Z" fill="black"/>
<path d="M206.517 27.4746C208.431 27.4746 209.852 27.9043 210.779 28.7637C211.707 29.623 212.171 30.9951 212.171 32.8799V43.793H210.398L209.93 41.4199H209.812C209.363 42.0059 208.895 42.499 208.406 42.8994C207.918 43.29 207.352 43.5879 206.707 43.793C206.072 43.9883 205.291 44.0859 204.363 44.0859C203.387 44.0859 202.518 43.915 201.756 43.5732C201.004 43.2314 200.408 42.7139 199.969 42.0205C199.539 41.3271 199.324 40.4482 199.324 39.3838C199.324 37.7822 199.959 36.5518 201.229 35.6924C202.498 34.833 204.432 34.3643 207.029 34.2861L209.798 34.1689V33.1875C209.798 31.8008 209.5 30.8291 208.904 30.2725C208.309 29.7158 207.469 29.4375 206.385 29.4375C205.545 29.4375 204.744 29.5596 203.982 29.8037C203.221 30.0479 202.498 30.3359 201.814 30.668L201.067 28.8223C201.79 28.4512 202.62 28.1338 203.558 27.8701C204.495 27.6064 205.481 27.4746 206.517 27.4746ZM209.769 35.8828L207.322 35.9854C205.32 36.0635 203.909 36.3906 203.089 36.9668C202.269 37.543 201.858 38.3584 201.858 39.4131C201.858 40.3311 202.137 41.0098 202.693 41.4492C203.25 41.8887 203.987 42.1084 204.905 42.1084C206.331 42.1084 207.498 41.7129 208.406 40.9219C209.314 40.1309 209.769 38.9443 209.769 37.3623V35.8828Z" fill="black"/>
<path d="M222.894 44.0859C220.862 44.0859 219.251 43.3926 218.06 42.0059C216.878 40.6191 216.287 38.5586 216.287 35.8242C216.287 33.0605 216.893 30.9756 218.104 29.5693C219.314 28.1533 220.926 27.4453 222.938 27.4453C223.787 27.4453 224.529 27.5576 225.164 27.7822C225.799 28.0068 226.346 28.3096 226.805 28.6904C227.264 29.0615 227.649 29.4863 227.962 29.9648H228.138C228.099 29.6621 228.06 29.2471 228.021 28.7197C227.981 28.1924 227.962 27.7627 227.962 27.4307V21H230.394V43.793H228.431L228.064 41.5078H227.962C227.659 41.9863 227.273 42.4209 226.805 42.8115C226.346 43.2021 225.794 43.5146 225.149 43.749C224.515 43.9736 223.763 44.0859 222.894 44.0859ZM223.274 42.0645C224.993 42.0645 226.209 41.5762 226.922 40.5996C227.635 39.623 227.991 38.1729 227.991 36.249V35.8096C227.991 33.7686 227.649 32.2012 226.966 31.1074C226.292 30.0137 225.062 29.4668 223.274 29.4668C221.78 29.4668 220.662 30.043 219.92 31.1953C219.178 32.3379 218.807 33.9004 218.807 35.8828C218.807 37.8555 219.173 39.3789 219.905 40.4531C220.647 41.5273 221.771 42.0645 223.274 42.0645Z" fill="black"/>
<path d="M249.393 35.7363C249.393 37.0547 249.222 38.2314 248.88 39.2666C248.538 40.3018 248.045 41.1758 247.4 41.8887C246.756 42.6016 245.975 43.1484 245.057 43.5293C244.148 43.9004 243.118 44.0859 241.966 44.0859C240.892 44.0859 239.905 43.9004 239.007 43.5293C238.118 43.1484 237.347 42.6016 236.692 41.8887C236.048 41.1758 235.545 40.3018 235.184 39.2666C234.832 38.2314 234.656 37.0547 234.656 35.7363C234.656 33.9785 234.954 32.4844 235.55 31.2539C236.146 30.0137 236.995 29.0713 238.099 28.4268C239.212 27.7725 240.535 27.4453 242.068 27.4453C243.533 27.4453 244.812 27.7725 245.906 28.4268C247.01 29.0811 247.864 30.0283 248.47 31.2686C249.085 32.499 249.393 33.9883 249.393 35.7363ZM237.176 35.7363C237.176 37.0254 237.347 38.1436 237.688 39.0908C238.03 40.0381 238.558 40.7705 239.271 41.2881C239.983 41.8057 240.901 42.0645 242.024 42.0645C243.138 42.0645 244.051 41.8057 244.764 41.2881C245.486 40.7705 246.019 40.0381 246.36 39.0908C246.702 38.1436 246.873 37.0254 246.873 35.7363C246.873 34.457 246.702 33.3535 246.36 32.4258C246.019 31.4883 245.491 30.7656 244.778 30.2578C244.065 29.75 243.143 29.4961 242.01 29.4961C240.34 29.4961 239.114 30.0479 238.333 31.1514C237.562 32.2549 237.176 33.7832 237.176 35.7363Z" fill="black"/>
</svg>
