<svg width="184" height="208" viewBox="0 0 184 208" fill="none" xmlns="http://www.w3.org/2000/svg">
<g id="Logo Colorido">
<g id="Group 241">
<path id="Vector" d="M63.2766 34.7958L67.5877 25.1082L63.2766 26.941C45.5334 46.8397 26 43.9737 26 71.4654C26 94.506 46.5402 130.9 82.7951 134.827V128.805C56.1749 126.972 33.4332 98.9571 32.0846 72.7743C30.8169 48.1627 46.8 51.0289 63.2766 34.7958Z" fill="#0ABEA4"/>
<path id="Vector_2" d="M124.136 24.8462L131.744 25.8936L124.136 18.0387C94.9156 -8.40249 81.5289 -6.05111 63.2762 26.9546V34.8088C85.5916 10.9833 80.2664 -11.2851 124.136 24.8462Z" fill="#538AEF"/>
<path id="Vector_3" d="M144.931 90.0417L143.156 95.5401L152.285 90.8271C163.696 78.7833 159.131 41.6039 128.448 20.9196L124.137 18.0535V24.861L128.448 28.0029C154.567 47.378 158.117 77.2122 144.931 90.0417Z" fill="#0ABEA4"/>
<path id="Vector_4" d="M145.184 89.7939C108.415 103.932 112.472 127.235 91.4246 130.115V135.352C118.051 133.781 107.4 111.787 147.72 94.7686C149.697 93.6612 150.737 92.8863 152.284 90.8411C150.102 89.6986 148.549 89.4818 145.184 89.7939Z" fill="#538AEF"/>
<path id="Vector_5" d="M54.1481 77.9976L49.8372 85.5906L70.1239 98.1582L82.2959 121.199V158.378H84.3246V121.199H86.3531V158.378H91.6784V121.199L103.597 98.9438L124.898 85.3289L120.587 77.9976L105.118 87.6853V68.8338L116.783 47.3641L109.429 42.6511L100.554 59.1462L91.6784 42.6511L84.0709 47.8878L95.7358 68.8338V94.7546L86.8603 110.464L77.9849 94.2309L77.4778 68.8338H68.6024L69.3631 87.1616L54.1481 77.9976Z" fill="black"/>
</g>
<g id="Logo">
<g id="Group 241_2">
<g id="IWD Cerrado">
<path d="M0 184.102H2.688V207.014H0V184.102Z" fill="#5F6368"/>
<path d="M5.7965 184.102H8.8045L12.9645 200.934L13.3485 202.502H13.4765L13.9565 200.934L19.0765 184.102H21.8925L26.7885 200.934L27.2685 202.502H27.3965L31.9085 184.102H34.9165L28.7405 207.014H25.9245L21.0605 190.438L20.5485 188.646H20.4205L19.8765 190.438L14.8205 207.014H12.0045L5.7965 184.102Z" fill="#5F6368"/>
<path d="M38.0312 184.102H44.9432C47.2899 184.102 49.3379 184.593 51.0872 185.574C52.8366 186.534 54.1806 187.878 55.1193 189.606C56.0579 191.334 56.5272 193.318 56.5272 195.558C56.5272 197.798 56.0579 199.782 55.1193 201.51C54.1806 203.238 52.8366 204.593 51.0872 205.574C49.3379 206.534 47.2899 207.014 44.9432 207.014H38.0312V184.102ZM44.9432 204.422C47.6526 204.422 49.7966 203.644 51.3752 202.086C52.9752 200.529 53.7752 198.353 53.7752 195.558C53.7752 192.764 52.9752 190.588 51.3752 189.03C49.7966 187.473 47.6526 186.694 44.9432 186.694H40.7192V204.422H44.9432Z" fill="#5F6368"/>
<path d="M78.0957 207.526C75.8771 207.526 73.8611 207.004 72.0478 205.958C70.2344 204.913 68.8051 203.484 67.7598 201.67C66.7358 199.836 66.2238 197.798 66.2238 195.558C66.2238 193.318 66.7358 191.292 67.7598 189.478C68.8051 187.644 70.2344 186.204 72.0478 185.158C73.8611 184.113 75.8771 183.59 78.0957 183.59C79.8024 183.59 81.3598 183.921 82.7678 184.582C84.1971 185.222 85.4344 186.14 86.4798 187.334L84.5278 189.222C83.6531 188.177 82.6931 187.409 81.6478 186.918C80.6238 186.428 79.4397 186.182 78.0957 186.182C76.4317 186.182 74.9064 186.577 73.5198 187.366C72.1331 188.134 71.0237 189.233 70.1917 190.662C69.3811 192.07 68.9758 193.702 68.9758 195.558C68.9758 197.414 69.3811 199.057 70.1917 200.486C71.0237 201.894 72.1331 202.993 73.5198 203.782C74.9064 204.55 76.4317 204.934 78.0957 204.934C80.8691 204.934 83.2264 203.793 85.1678 201.51L87.1518 203.43C86.0851 204.689 84.7731 205.692 83.2158 206.438C81.6584 207.164 79.9517 207.526 78.0957 207.526Z" fill="#5F6368"/>
<path d="M97.1575 207.526C95.6002 207.526 94.2028 207.153 92.9655 206.406C91.7282 205.66 90.7575 204.636 90.0535 203.334C89.3708 202.012 89.0295 200.529 89.0295 198.886C89.0295 197.308 89.3495 195.857 89.9895 194.534C90.6508 193.212 91.5788 192.156 92.7735 191.366C93.9682 190.577 95.3548 190.182 96.9335 190.182C98.5335 190.182 99.9202 190.545 101.094 191.27C102.267 191.974 103.163 192.956 103.782 194.214C104.422 195.473 104.742 196.913 104.742 198.534C104.742 198.854 104.71 199.132 104.646 199.366H91.7495C91.8135 200.604 92.1122 201.649 92.6455 202.502C93.1788 203.356 93.8508 203.996 94.6615 204.422C95.4935 204.849 96.3575 205.062 97.2535 205.062C99.3442 205.062 100.955 204.081 102.086 202.118L104.39 203.238C103.686 204.561 102.726 205.606 101.51 206.374C100.315 207.142 98.8642 207.526 97.1575 207.526ZM101.862 197.126C101.819 196.444 101.627 195.761 101.286 195.078C100.944 194.396 100.4 193.82 99.6535 193.35C98.9282 192.881 98.0108 192.646 96.9015 192.646C95.6215 192.646 94.5335 193.062 93.6375 193.894C92.7628 194.705 92.1868 195.782 91.9095 197.126H101.862Z" fill="#5F6368"/>
<path d="M107.925 190.694H110.517V193.318H110.645C110.965 192.422 111.583 191.686 112.501 191.11C113.418 190.513 114.378 190.214 115.381 190.214C116.127 190.214 116.767 190.321 117.301 190.534V193.478C116.618 193.137 115.85 192.966 114.997 192.966C114.207 192.966 113.482 193.19 112.821 193.638C112.159 194.086 111.626 194.694 111.221 195.462C110.837 196.209 110.645 197.02 110.645 197.894V207.014H107.925V190.694Z" fill="#5F6368"/>
<path d="M119.925 190.694H122.517V193.318H122.645C122.965 192.422 123.583 191.686 124.501 191.11C125.418 190.513 126.378 190.214 127.381 190.214C128.127 190.214 128.767 190.321 129.301 190.534V193.478C128.618 193.137 127.85 192.966 126.997 192.966C126.207 192.966 125.482 193.19 124.821 193.638C124.159 194.086 123.626 194.694 123.221 195.462C122.837 196.209 122.645 197.02 122.645 197.894V207.014H119.925V190.694Z" fill="#5F6368"/>
<path d="M136.516 207.526C135.321 207.526 134.254 207.292 133.316 206.822C132.377 206.353 131.652 205.713 131.14 204.902C130.628 204.07 130.372 203.132 130.372 202.086C130.372 200.358 131.022 199.014 132.324 198.054C133.625 197.073 135.268 196.582 137.252 196.582C138.233 196.582 139.14 196.689 139.972 196.902C140.825 197.116 141.476 197.361 141.924 197.638V196.646C141.924 195.43 141.497 194.46 140.644 193.734C139.79 192.988 138.713 192.614 137.412 192.614C136.494 192.614 135.652 192.817 134.884 193.222C134.116 193.606 133.508 194.15 133.06 194.854L131.012 193.318C131.652 192.337 132.526 191.569 133.636 191.014C134.766 190.46 136.014 190.182 137.38 190.182C139.598 190.182 141.337 190.769 142.596 191.942C143.876 193.094 144.516 194.673 144.516 196.678V207.014H141.924V204.678H141.796C141.326 205.468 140.622 206.14 139.684 206.694C138.745 207.249 137.689 207.526 136.516 207.526ZM136.772 205.126C137.689 205.126 138.542 204.892 139.332 204.422C140.121 203.953 140.75 203.324 141.22 202.534C141.689 201.745 141.924 200.881 141.924 199.942C141.412 199.601 140.782 199.324 140.036 199.11C139.289 198.897 138.5 198.79 137.668 198.79C136.174 198.79 135.044 199.1 134.276 199.718C133.529 200.337 133.156 201.137 133.156 202.118C133.156 203.014 133.497 203.74 134.18 204.294C134.862 204.849 135.726 205.126 136.772 205.126Z" fill="#5F6368"/>
<path d="M155.055 207.526C153.605 207.526 152.282 207.153 151.088 206.406C149.914 205.66 148.986 204.636 148.303 203.334C147.621 202.012 147.279 200.518 147.279 198.854C147.279 197.212 147.621 195.729 148.303 194.406C148.986 193.084 149.914 192.049 151.088 191.302C152.282 190.556 153.605 190.182 155.055 190.182C156.314 190.182 157.434 190.47 158.415 191.046C159.397 191.601 160.144 192.294 160.656 193.126H160.784L160.656 190.854V184.102H163.376V207.014H160.784V204.614H160.656C160.144 205.425 159.397 206.118 158.415 206.694C157.434 207.249 156.314 207.526 155.055 207.526ZM155.376 205.062C156.336 205.062 157.221 204.806 158.032 204.294C158.864 203.782 159.525 203.057 160.016 202.118C160.528 201.18 160.784 200.092 160.784 198.854C160.784 197.617 160.528 196.529 160.016 195.59C159.525 194.652 158.864 193.926 158.032 193.414C157.221 192.902 156.336 192.646 155.376 192.646C154.437 192.646 153.551 192.902 152.719 193.414C151.887 193.926 151.216 194.662 150.704 195.622C150.213 196.561 149.967 197.638 149.967 198.854C149.967 200.07 150.213 201.158 150.704 202.118C151.216 203.057 151.887 203.782 152.719 204.294C153.551 204.806 154.437 205.062 155.376 205.062Z" fill="#5F6368"/>
<path d="M174.757 207.526C173.157 207.526 171.717 207.142 170.437 206.374C169.157 205.606 168.155 204.561 167.429 203.238C166.725 201.916 166.373 200.454 166.373 198.854C166.373 197.254 166.725 195.793 167.429 194.47C168.155 193.148 169.157 192.102 170.437 191.334C171.717 190.566 173.157 190.182 174.757 190.182C176.357 190.182 177.797 190.566 179.077 191.334C180.357 192.102 181.349 193.148 182.053 194.47C182.779 195.793 183.141 197.254 183.141 198.854C183.141 200.454 182.779 201.916 182.053 203.238C181.349 204.561 180.357 205.606 179.077 206.374C177.797 207.142 176.357 207.526 174.757 207.526ZM174.757 205.062C175.76 205.062 176.688 204.817 177.541 204.326C178.416 203.814 179.109 203.089 179.621 202.15C180.155 201.212 180.421 200.113 180.421 198.854C180.421 197.596 180.155 196.497 179.621 195.558C179.109 194.62 178.416 193.905 177.541 193.414C176.688 192.902 175.76 192.646 174.757 192.646C173.755 192.646 172.816 192.902 171.941 193.414C171.067 193.905 170.363 194.62 169.829 195.558C169.317 196.497 169.061 197.596 169.061 198.854C169.061 200.113 169.317 201.212 169.829 202.15C170.363 203.089 171.067 203.814 171.941 204.326C172.816 204.817 173.755 205.062 174.757 205.062Z" fill="#5F6368"/>
</g>
</g>
</g>
</g>
</svg>
