<svg width="175" height="98" viewBox="0 0 175 98" fill="none" xmlns="http://www.w3.org/2000/svg">
<path d="M75.3935 14.3672L77.1738 10.3667L75.3935 11.1236C68.0664 19.3406 60 18.1571 60 29.5097C60 39.0243 68.4821 54.0529 83.4538 55.6746V53.1879C72.4608 52.4311 63.0696 40.8623 62.5127 30.0502C61.9892 19.887 68.5895 21.0706 75.3935 14.3672Z" fill="#0ABEA4"/>
<path d="M100.526 10.2586L103.667 10.6911L100.526 7.44751C88.459 -3.47128 82.9309 -2.50029 75.3934 11.1293V14.3726C84.6086 4.53398 82.4096 -4.66166 100.526 10.2586Z" fill="#538AEF"/>
<path d="M109.113 37.1806L108.38 39.4511L112.15 37.5049C116.862 32.5315 114.977 17.1784 102.306 8.63694L100.526 7.45337V10.2645L102.306 11.5619C113.092 19.5628 114.558 31.8827 109.113 37.1806Z" fill="#0ABEA4"/>
<path d="M109.217 37.0783C94.0333 42.9167 95.7088 52.5394 87.0172 53.7288V55.8911C98.0126 55.2424 93.6145 46.1603 110.265 39.1326C111.081 38.6753 111.511 38.3553 112.15 37.5108C111.248 37.039 110.607 36.9494 109.217 37.0783Z" fill="#538AEF"/>
<path d="M71.6239 32.2073L69.8438 35.3428L78.2212 40.5325L83.2477 50.047V65.4001H84.0855V50.047H84.9231V65.4001H87.1222V50.047L92.044 40.8569L100.84 35.2347L99.0601 32.2073L92.6723 36.2077V28.4231L97.4893 19.5573L94.4526 17.6111L90.7874 24.4226L87.1222 17.6111L83.9807 19.7735L88.7977 28.4231V39.127L85.1326 45.6141L81.4674 38.9107L81.2581 28.4231H77.5929L77.907 35.9915L71.6239 32.2073Z" fill="black"/>
<path d="M0 97V75.584H2.49023V97H0Z" fill="black"/>
<path d="M32.71 75.584L26.9824 97H24.4775L20.2295 82.5859C20.1025 82.1758 19.9805 81.7656 19.8633 81.3555C19.7559 80.9355 19.6533 80.54 19.5557 80.1689C19.458 79.7881 19.375 79.4561 19.3066 79.1729C19.248 78.8799 19.2041 78.6602 19.1748 78.5137C19.1553 78.6602 19.1162 78.875 19.0576 79.1582C19.0088 79.4414 18.9404 79.7686 18.8525 80.1396C18.7744 80.5107 18.6768 80.9062 18.5596 81.3262C18.4521 81.7461 18.335 82.1709 18.208 82.6006L14.0771 97H11.5723L5.88867 75.584H8.48145L11.9238 89.0166C12.041 89.4658 12.1484 89.9102 12.2461 90.3496C12.3535 90.7793 12.4463 91.1992 12.5244 91.6094C12.6123 92.0195 12.6904 92.4199 12.7588 92.8105C12.8271 93.2012 12.8906 93.582 12.9492 93.9531C12.998 93.5723 13.0615 93.1768 13.1396 92.7666C13.2178 92.3467 13.3008 91.9219 13.3887 91.4922C13.4863 91.0625 13.5889 90.6279 13.6963 90.1885C13.8135 89.749 13.9355 89.3096 14.0625 88.8701L17.915 75.584H20.4785L24.4922 88.9727C24.6289 89.4316 24.7559 89.8857 24.873 90.335C24.9902 90.7842 25.0928 91.2236 25.1807 91.6533C25.2783 92.0732 25.3613 92.4785 25.4297 92.8691C25.5078 93.25 25.5762 93.6113 25.6348 93.9531C25.7031 93.4746 25.7861 92.9717 25.8838 92.4443C25.9814 91.917 26.0938 91.3652 26.2207 90.7891C26.3574 90.2129 26.5039 89.6172 26.6602 89.002L30.1025 75.584H32.71Z" fill="black"/>
<path d="M53.1006 86.0869C53.1006 88.499 52.6611 90.5156 51.7822 92.1367C50.9033 93.748 49.6289 94.9639 47.959 95.7842C46.2988 96.5947 44.2822 97 41.9092 97H36.0938V75.584H42.5537C44.7314 75.584 46.6064 75.9844 48.1787 76.7852C49.751 77.5762 50.9619 78.7529 51.8115 80.3154C52.6709 81.8682 53.1006 83.792 53.1006 86.0869ZM50.4785 86.1748C50.4785 84.251 50.1562 82.6641 49.5117 81.4141C48.877 80.1641 47.9395 79.2363 46.6992 78.6309C45.4688 78.0156 43.96 77.708 42.1729 77.708H38.584V94.8613H41.6162C44.5654 94.8613 46.7773 94.1338 48.252 92.6787C49.7363 91.2236 50.4785 89.0557 50.4785 86.1748Z" fill="black"/>
<path d="M74.8096 77.4736C73.6279 77.4736 72.5635 77.6787 71.6162 78.0889C70.6787 78.4893 69.8779 79.0752 69.2139 79.8467C68.5596 80.6084 68.0566 81.5312 67.7051 82.6152C67.3535 83.6992 67.1777 84.9199 67.1777 86.2773C67.1777 88.0742 67.4561 89.6367 68.0127 90.9648C68.5791 92.2832 69.4189 93.3037 70.5322 94.0264C71.6553 94.749 73.0566 95.1104 74.7363 95.1104C75.6934 95.1104 76.5918 95.0322 77.4316 94.876C78.2812 94.71 79.1064 94.5049 79.9072 94.2607V96.4287C79.126 96.7217 78.3057 96.9365 77.4463 97.0732C76.5869 97.2197 75.5664 97.293 74.3848 97.293C72.207 97.293 70.3857 96.8438 68.9209 95.9453C67.4658 95.0371 66.3721 93.7578 65.6396 92.1074C64.917 90.457 64.5557 88.5088 64.5557 86.2627C64.5557 84.6416 64.7803 83.1621 65.2295 81.8242C65.6885 80.4766 66.3525 79.3145 67.2217 78.3379C68.1006 77.3613 69.1748 76.6094 70.4443 76.082C71.7236 75.5449 73.1885 75.2764 74.8389 75.2764C75.9229 75.2764 76.9678 75.3838 77.9736 75.5986C78.9795 75.8135 79.8877 76.1211 80.6982 76.5215L79.7021 78.6309C79.0186 78.3184 78.2666 78.0498 77.4463 77.8252C76.6357 77.5908 75.7568 77.4736 74.8096 77.4736Z" fill="black"/>
<path d="M90.3662 80.6523C91.7334 80.6523 92.9053 80.9551 93.8818 81.5605C94.8584 82.166 95.6055 83.0156 96.123 84.1094C96.6406 85.1934 96.8994 86.4629 96.8994 87.918V89.4268H85.8105C85.8398 91.3115 86.3086 92.7471 87.2168 93.7334C88.125 94.7197 89.4043 95.2129 91.0547 95.2129C92.0703 95.2129 92.9688 95.1201 93.75 94.9346C94.5312 94.749 95.3418 94.4756 96.1816 94.1143V96.2529C95.3711 96.6143 94.5654 96.8779 93.7646 97.0439C92.9736 97.21 92.0361 97.293 90.9521 97.293C89.4092 97.293 88.0615 96.9805 86.9092 96.3555C85.7666 95.7207 84.8779 94.793 84.2432 93.5723C83.6084 92.3516 83.291 90.8574 83.291 89.0898C83.291 87.3613 83.5791 85.8672 84.1553 84.6074C84.7412 83.3379 85.5615 82.3613 86.6162 81.6777C87.6807 80.9941 88.9307 80.6523 90.3662 80.6523ZM90.3369 82.6445C89.0381 82.6445 88.0029 83.0693 87.2314 83.9189C86.46 84.7686 86.001 85.9551 85.8545 87.4785H94.3506C94.3408 86.5215 94.1895 85.6816 93.8965 84.959C93.6133 84.2266 93.1787 83.6602 92.5928 83.2598C92.0068 82.8496 91.2549 82.6445 90.3369 82.6445Z" fill="black"/>
<path d="M108.325 80.6523C108.647 80.6523 108.984 80.6719 109.336 80.7109C109.688 80.7402 110 80.7842 110.273 80.8428L109.966 83.0986C109.702 83.0303 109.409 82.9766 109.087 82.9375C108.765 82.8984 108.462 82.8789 108.179 82.8789C107.534 82.8789 106.924 83.0107 106.348 83.2744C105.781 83.5283 105.283 83.8994 104.854 84.3877C104.424 84.8662 104.087 85.4473 103.843 86.1309C103.599 86.8047 103.477 87.5566 103.477 88.3867V97H101.03V80.9453H103.052L103.315 83.9043H103.418C103.75 83.3086 104.15 82.7666 104.619 82.2783C105.088 81.7803 105.63 81.3848 106.245 81.0918C106.87 80.7988 107.563 80.6523 108.325 80.6523Z" fill="black"/>
<path d="M120.601 80.6523C120.923 80.6523 121.26 80.6719 121.611 80.7109C121.963 80.7402 122.275 80.7842 122.549 80.8428L122.241 83.0986C121.978 83.0303 121.685 82.9766 121.362 82.9375C121.04 82.8984 120.737 82.8789 120.454 82.8789C119.81 82.8789 119.199 83.0107 118.623 83.2744C118.057 83.5283 117.559 83.8994 117.129 84.3877C116.699 84.8662 116.362 85.4473 116.118 86.1309C115.874 86.8047 115.752 87.5566 115.752 88.3867V97H113.306V80.9453H115.327L115.591 83.9043H115.693C116.025 83.3086 116.426 82.7666 116.895 82.2783C117.363 81.7803 117.905 81.3848 118.521 81.0918C119.146 80.7988 119.839 80.6523 120.601 80.6523Z" fill="black"/>
<path d="M131.587 80.6816C133.501 80.6816 134.922 81.1113 135.85 81.9707C136.777 82.8301 137.241 84.2021 137.241 86.0869V97H135.469L135 94.627H134.883C134.434 95.2129 133.965 95.7061 133.477 96.1064C132.988 96.4971 132.422 96.7949 131.777 97C131.143 97.1953 130.361 97.293 129.434 97.293C128.457 97.293 127.588 97.1221 126.826 96.7803C126.074 96.4385 125.479 95.9209 125.039 95.2275C124.609 94.5342 124.395 93.6553 124.395 92.5908C124.395 90.9893 125.029 89.7588 126.299 88.8994C127.568 88.04 129.502 87.5713 132.1 87.4932L134.868 87.376V86.3945C134.868 85.0078 134.57 84.0361 133.975 83.4795C133.379 82.9229 132.539 82.6445 131.455 82.6445C130.615 82.6445 129.814 82.7666 129.053 83.0107C128.291 83.2549 127.568 83.543 126.885 83.875L126.138 82.0293C126.86 81.6582 127.69 81.3408 128.628 81.0771C129.565 80.8135 130.552 80.6816 131.587 80.6816ZM134.839 89.0898L132.393 89.1924C130.391 89.2705 128.979 89.5977 128.159 90.1738C127.339 90.75 126.929 91.5654 126.929 92.6201C126.929 93.5381 127.207 94.2168 127.764 94.6562C128.32 95.0957 129.058 95.3154 129.976 95.3154C131.401 95.3154 132.568 94.9199 133.477 94.1289C134.385 93.3379 134.839 92.1514 134.839 90.5693V89.0898Z" fill="black"/>
<path d="M147.964 97.293C145.933 97.293 144.321 96.5996 143.13 95.2129C141.948 93.8262 141.357 91.7656 141.357 89.0312C141.357 86.2676 141.963 84.1826 143.174 82.7764C144.385 81.3604 145.996 80.6523 148.008 80.6523C148.857 80.6523 149.6 80.7646 150.234 80.9893C150.869 81.2139 151.416 81.5166 151.875 81.8975C152.334 82.2686 152.72 82.6934 153.032 83.1719H153.208C153.169 82.8691 153.13 82.4541 153.091 81.9268C153.052 81.3994 153.032 80.9697 153.032 80.6377V74.207H155.464V97H153.501L153.135 94.7148H153.032C152.729 95.1934 152.344 95.6279 151.875 96.0186C151.416 96.4092 150.864 96.7217 150.22 96.9561C149.585 97.1807 148.833 97.293 147.964 97.293ZM148.345 95.2715C150.063 95.2715 151.279 94.7832 151.992 93.8066C152.705 92.8301 153.062 91.3799 153.062 89.4561V89.0166C153.062 86.9756 152.72 85.4082 152.036 84.3145C151.362 83.2207 150.132 82.6738 148.345 82.6738C146.851 82.6738 145.732 83.25 144.99 84.4023C144.248 85.5449 143.877 87.1074 143.877 89.0898C143.877 91.0625 144.243 92.5859 144.976 93.6602C145.718 94.7344 146.841 95.2715 148.345 95.2715Z" fill="black"/>
<path d="M174.463 88.9434C174.463 90.2617 174.292 91.4385 173.95 92.4736C173.608 93.5088 173.115 94.3828 172.471 95.0957C171.826 95.8086 171.045 96.3555 170.127 96.7363C169.219 97.1074 168.188 97.293 167.036 97.293C165.962 97.293 164.976 97.1074 164.077 96.7363C163.188 96.3555 162.417 95.8086 161.763 95.0957C161.118 94.3828 160.615 93.5088 160.254 92.4736C159.902 91.4385 159.727 90.2617 159.727 88.9434C159.727 87.1855 160.024 85.6914 160.62 84.4609C161.216 83.2207 162.065 82.2783 163.169 81.6338C164.282 80.9795 165.605 80.6523 167.139 80.6523C168.604 80.6523 169.883 80.9795 170.977 81.6338C172.08 82.2881 172.935 83.2354 173.54 84.4756C174.155 85.7061 174.463 87.1953 174.463 88.9434ZM162.246 88.9434C162.246 90.2324 162.417 91.3506 162.759 92.2979C163.101 93.2451 163.628 93.9775 164.341 94.4951C165.054 95.0127 165.972 95.2715 167.095 95.2715C168.208 95.2715 169.121 95.0127 169.834 94.4951C170.557 93.9775 171.089 93.2451 171.431 92.2979C171.772 91.3506 171.943 90.2324 171.943 88.9434C171.943 87.6641 171.772 86.5605 171.431 85.6328C171.089 84.6953 170.562 83.9727 169.849 83.4648C169.136 82.957 168.213 82.7031 167.08 82.7031C165.41 82.7031 164.185 83.2549 163.403 84.3584C162.632 85.4619 162.246 86.9902 162.246 88.9434Z" fill="black"/>
</svg>
