<svg width="556" height="526" viewBox="0 0 556 526" fill="none" xmlns="http://www.w3.org/2000/svg">
<mask id="mask0_106_1938" style="mask-type:alpha" maskUnits="userSpaceOnUse" x="0" y="0" width="556" height="526">
<rect width="556" height="526" fill="#D9D9D9"/>
</mask>
<g mask="url(#mask0_106_1938)">
<rect x="217.1" y="50" width="478" height="278" transform="rotate(90 217.1 50)" fill="#DB543E"/>
<path d="M169.9 19L169.9 527" stroke="white" stroke-width="0.39" stroke-miterlimit="10"/>
<path d="M123.725 19L123.725 527" stroke="white" stroke-width="0.39" stroke-miterlimit="10"/>
<path d="M216.1 19L216.1 527" stroke="white" stroke-width="0.39" stroke-miterlimit="10"/>
<path d="M77.5498 19L77.5498 527" stroke="white" stroke-width="0.39" stroke-miterlimit="10"/>
<path d="M31.3745 19L31.3745 527" stroke="white" stroke-width="0.39" stroke-miterlimit="10"/>
<path d="M216.1 65L-60.9004 65" stroke="white" stroke-width="0.39" stroke-miterlimit="10"/>
<path d="M216.1 111L-60.9004 111" stroke="white" stroke-width="0.39" stroke-miterlimit="10"/>
<path d="M216.1 158L-60.9004 158" stroke="white" stroke-width="0.39" stroke-miterlimit="10"/>
<path d="M216.1 204L-60.9004 204" stroke="white" stroke-width="0.39" stroke-miterlimit="10"/>
<path d="M216.1 250L-60.9004 250" stroke="white" stroke-width="0.39" stroke-miterlimit="10"/>
<path d="M216.1 296L-60.9004 296" stroke="white" stroke-width="0.39" stroke-miterlimit="10"/>
<path d="M216.1 342L-60.9004 342" stroke="white" stroke-width="0.39" stroke-miterlimit="10"/>
<path d="M216.1 388L-60.9004 388" stroke="white" stroke-width="0.39" stroke-miterlimit="10"/>
<path d="M216.1 435L-60.9004 435" stroke="white" stroke-width="0.39" stroke-miterlimit="10"/>
<path d="M216.1 481L-60.9004 481" stroke="white" stroke-width="0.39" stroke-miterlimit="10"/>
<rect x="-169" y="450.95" width="431.93" height="225.808" transform="rotate(-18.7655 -169 450.95)" fill="#F9E9E6"/>
<circle cx="260.498" cy="442.613" r="2.89497" transform="rotate(71.2345 260.498 442.613)" fill="#E58D81"/>
<circle cx="226.971" cy="343.934" r="2.89497" transform="rotate(71.2345 226.971 343.934)" fill="#E58D81"/>
<circle cx="271.673" cy="475.506" r="2.89497" transform="rotate(71.2345 271.673 475.506)" fill="#E58D81"/>
<circle cx="238.146" cy="376.827" r="2.89497" transform="rotate(71.2345 238.146 376.827)" fill="#E58D81"/>
<circle cx="282.849" cy="508.399" r="2.89497" transform="rotate(71.2345 282.849 508.399)" fill="#E58D81"/>
<circle cx="249.322" cy="409.72" r="2.89497" transform="rotate(71.2345 249.322 409.72)" fill="#E58D81"/>
<circle cx="63.1397" cy="509.667" r="2.89497" transform="rotate(71.2345 63.1397 509.667)" fill="#E58D81"/>
<circle cx="29.6128" cy="410.988" r="2.89497" transform="rotate(71.2345 29.6128 410.988)" fill="#E58D81"/>
<circle cx="40.7886" cy="443.881" r="2.89497" transform="rotate(71.2345 40.7886 443.881)" fill="#E58D81"/>
<circle cx="51.9639" cy="476.774" r="2.89497" transform="rotate(71.2345 51.9639 476.774)" fill="#E58D81"/>
<circle cx="161.819" cy="476.14" r="2.89497" transform="rotate(71.2345 161.819 476.14)" fill="#E58D81"/>
<circle cx="128.292" cy="377.461" r="2.89497" transform="rotate(71.2345 128.292 377.461)" fill="#E58D81"/>
<circle cx="172.994" cy="509.033" r="2.89497" transform="rotate(71.2345 172.994 509.033)" fill="#E58D81"/>
<circle cx="139.468" cy="410.354" r="2.89497" transform="rotate(71.2345 139.468 410.354)" fill="#E58D81"/>
<circle cx="150.643" cy="443.247" r="2.89497" transform="rotate(71.2345 150.643 443.247)" fill="#E58D81"/>
<circle cx="194.712" cy="464.964" r="2.89497" transform="rotate(71.2345 194.712 464.964)" fill="#E58D81"/>
<circle cx="161.185" cy="366.285" r="2.89497" transform="rotate(71.2345 161.185 366.285)" fill="#E58D81"/>
<circle cx="205.887" cy="497.857" r="2.89497" transform="rotate(71.2345 205.887 497.857)" fill="#E58D81"/>
<circle cx="172.36" cy="399.178" r="2.89497" transform="rotate(71.2345 172.36 399.178)" fill="#E58D81"/>
<circle cx="183.536" cy="432.071" r="2.89497" transform="rotate(71.2345 183.536 432.071)" fill="#E58D81"/>
<circle cx="96.0327" cy="498.491" r="2.89497" transform="rotate(71.2345 96.0327 498.491)" fill="#E58D81"/>
<circle cx="62.5059" cy="399.812" r="2.89497" transform="rotate(71.2345 62.5059 399.812)" fill="#E58D81"/>
<circle cx="73.6817" cy="432.705" r="2.89497" transform="rotate(71.2345 73.6817 432.705)" fill="#E58D81"/>
<circle cx="84.857" cy="465.598" r="2.89497" transform="rotate(71.2345 84.857 465.598)" fill="#E58D81"/>
<circle cx="227.605" cy="453.789" r="2.89497" transform="rotate(71.2345 227.605 453.789)" fill="#E58D81"/>
<circle cx="194.078" cy="355.11" r="2.89497" transform="rotate(71.2345 194.078 355.11)" fill="#E58D81"/>
<circle cx="238.78" cy="486.682" r="2.89497" transform="rotate(71.2345 238.78 486.682)" fill="#E58D81"/>
<circle cx="205.253" cy="388.003" r="2.89497" transform="rotate(71.2345 205.253 388.003)" fill="#E58D81"/>
<circle cx="249.956" cy="519.575" r="2.89497" transform="rotate(71.2345 249.956 519.575)" fill="#E58D81"/>
<circle cx="216.429" cy="420.896" r="2.89497" transform="rotate(71.2345 216.429 420.896)" fill="#E58D81"/>
<circle cx="30.2466" cy="520.842" r="2.89497" transform="rotate(71.2345 30.2466 520.842)" fill="#E58D81"/>
<circle cx="-3.28024" cy="422.163" r="2.89497" transform="rotate(71.2345 -3.28024 422.163)" fill="#E58D81"/>
<circle cx="7.89554" cy="455.056" r="2.89497" transform="rotate(71.2345 7.89554 455.056)" fill="#E58D81"/>
<circle cx="19.0708" cy="487.949" r="2.89497" transform="rotate(71.2345 19.0708 487.949)" fill="#E58D81"/>
<circle cx="128.926" cy="487.315" r="2.89497" transform="rotate(71.2345 128.926 487.315)" fill="#E58D81"/>
<circle cx="95.399" cy="388.636" r="2.89497" transform="rotate(71.2345 95.399 388.636)" fill="#E58D81"/>
<circle cx="140.101" cy="520.208" r="2.89497" transform="rotate(71.2345 140.101 520.208)" fill="#E58D81"/>
<circle cx="106.575" cy="421.529" r="2.89497" transform="rotate(71.2345 106.575 421.529)" fill="#E58D81"/>
<circle cx="117.75" cy="454.422" r="2.89497" transform="rotate(71.2345 117.75 454.422)" fill="#E58D81"/>
</g>
</svg>
