<svg xmlns="http://www.w3.org/2000/svg" viewBox="0 0 114 30" fill="#2d73e6" style="height: 35px;"><defs></defs><path d="M90.2 1.4h-2.7c-1 0-1.2.8-1.2 2.1s.2 2.1 1.2 2.1h2.7c1 0 1.2-.8 1.2-2.1s-.2-2.1-1.2-2.1M71.4 1.4h-2.7c-1 0-1.2.8-1.2 2.1s.2 2.1 1.2 2.1h2.7c1 0 1.2-.8 1.2-2.1s-.2-2.1-1.2-2.1M48.5 17.4c0 5.4.7 8.6 4.9 8.6h6.2c3.6 0 4.4-2.9 4.6-4.9 0-.3.1-1-.9-1h-2.6c-.7 0-.9.4-.9.8 0 .3 0 .5-.1.9 0 .3-.3.5-.6.5h-5.3c-.3 0-.5-.2-.6-.5-.3-1.9-.3-3.6-.3-4.5 0-.8 0-2.5.3-4.5 0-.3.3-.5.6-.5h5.3c.3 0 .5.2.6.5 0 .3 0 .5.1.9 0 .5.2.8.9.8h2.6c1 0 .9-.6.9-1-.2-2-1-4.9-4.6-4.9h-6.2c-4.2 0-4.9 3.2-4.9 8.6ZM71.5 8.8h-2.8c-.4 0-.6.3-.6.6v16c0 .4.3.6.6.6h2.8c.4 0 .6-.3.6-.6v-16c0-.4-.3-.6-.6-.6M80.9 1.4h-2.8c-.4 0-.6.3-.6.6v23.4c0 .4.3.6.6.6h2.8c.4 0 .6-.3.6-.6V2c0-.4-.3-.6-.6-.6M90.2 8.8h-2.8c-.4 0-.6.3-.6.6v16c0 .4.3.6.6.6h2.8c.4 0 .6-.3.6-.6v-16c0-.4-.3-.6-.6-.6M111.7 22.4h-.5c-.3 0-.5-.2-.5-.4-.1-.7-.1-2.5-.3-6.9 0-1-.2-2.1-.3-3-.2-1.8-1.3-3.3-3.6-3.3h-6c-.7 0-1.3 0-1.9.3-.8.3-1.3.7-1.8 1.4-.6.8-1 2.2-1.1 3.5 0 .3.2.7.9.7H99c.6 0 .8-.3.9-.7 0-.3.1-.8.1-1 0-.3.3-.5.6-.5h4.9c.3 0 .5.3.6.5.1.8.2 1.8.2 2.4 0 .4-.2.5-.6.5h-5.9c-.6 0-1.2.1-1.7.3-2 .6-2.6 2.2-2.7 2.9-.1.5-.2 1.1-.2 2 0 1.4.3 2.2.8 3 1.4 2 3.3 2 3.9 2h4.3c.9 0 1.8-.5 2.1-1.4.1-.4.2-.7.3-1.2v-.2c0-.1 0-.2.2-.2h1c.1 0 .2 0 .2.2.1.7.2 1.4.3 2.3 0 .2.2.4.5.4h2.9c.8 0 1-.5 1-.9v-2c0-.5-.2-.8-.8-.8m-5.7-.4c0 .3-.3.5-.5.5h-5.4c-.3 0-.5-.2-.5-.5v-2.4c0-.3.3-.5.5-.5h5.4c.3 0 .5.2.5.5v2.4M14.7 14.2v.2zM14.7 14.6v.4zM14.7 13.8v.2zM15.6 24.3v-.1c0-.2-.1-.4-.2-.6 0-.3-.1-.5-.2-.8-.3-1.6-.4-3.4-.5-5.4v-4.9H8.2c-.6 0-.9-.5-.8-1v-.1l1.6-2c.7-.9 1.8-1.4 2.9-1.4h3.2c0-.6.2-1.1.3-1.6h-4.1c-1.1 0-2.1.5-2.8 1.3l-2.3 2.7c-.2.3-.6.5-1 .5H3.1c-.7 0-1.3.3-1.7.9-.2.4-.2.9.4 1.2s1 .4 1.2.5.2 0 .1.3C2.4 15 2 16.4 2 17.8v7c0 1.1.9 1.9 1.9 1.9h2.5c1.1 0 1.9-.9 1.9-1.9h7Zm-5.8-6.9c0 .1-.1.2-.2.3-.4 0-1.2.2-2.3.2s-1.9-.1-2.3-.2c-.1 0-.2-.1-.2-.2v-1.9c0-.1.1-.2.2-.3.4 0 1.2-.2 2.3-.2s1.9.1 2.3.2c.1 0 .2.1.2.2zM32.8.2h-8.2c-4.4 0-6.5 2-7.5 5.8h6.3l3.9 4.7h1.3c.3-.6.9-.9 1.6-.9 1 0 1.8.8 1.8 1.8s-.8 1.8-1.8 1.8-1.3-.4-1.6-.9h-2l-3.9-4.7h-5.9c-.3 2.1-.4 4.5-.4 7.3v.6h8.1c.3-.6.9-.9 1.6-.9 1 0 1.8.8 1.8 1.8s-.8 1.8-1.8 1.8-1.3-.4-1.6-.9h-8c0 2 .2 3.9.5 5.4h9.5v1.7h2.9v-.9c-.6-.3-.9-.9-.9-1.6 0-1 .8-1.8 1.8-1.8s1.8.8 1.8 1.8-.4 1.3-.9 1.6v2.5h-6.1v-1.7h-7.5c1 3.5 3.2 5.4 7.4 5.4h8.2c7.2 0 8.3-5.4 8.3-14.7S40.4.5 33.2.5Z" class="st0"></path></svg>