<svg width="151" height="52" viewBox="0 0 151 52" fill="none" xmlns="http://www.w3.org/2000/svg">
<path d="M15.2961 23.7435H7.84412V31.2001H15.2961V23.7435Z" fill="#2A55D9"/>
<path d="M22.748 31.2H15.296V38.6566H22.748V31.2Z" fill="#2A55D9"/>
<path d="M22.748 23.7435H15.296V31.2001H22.748V23.7435Z" fill="#2A55D9"/>
<path d="M15.2961 38.6566H7.84412V46.1132H15.2961V38.6566Z" fill="#2A55D9"/>
<path d="M22.7304 8.8302H15.2784V16.2868H22.7304V8.8302Z" fill="#3D4043"/>
<path d="M30.1824 16.2869H22.7305V23.7435H30.1824V16.2869Z" fill="#446EEC"/>
<path d="M22.7304 23.7435H15.2784V31.2001H22.7304V23.7435Z" fill="#446EEC"/>
<path d="M22.7304 8.8302H15.2784V16.2868H22.7304V8.8302Z" fill="#3D4043"/>
<path d="M22.7304 8.8302H15.2784V16.2868H22.7304V8.8302Z" fill="#446EEC"/>
<path d="M39.3625 32.1641C38.4952 32.8894 37.2551 33.2513 35.6437 33.2513H32.557V38.5864H29.4783V23.75H35.8453C37.3127 23.75 38.4824 24.1327 39.3561 24.898C40.2282 25.6634 40.665 26.8466 40.665 28.451C40.6634 30.2027 40.2298 31.4404 39.3625 32.1641ZM36.9974 26.8194C36.6054 26.4912 36.0549 26.3263 35.3493 26.3263H32.557V30.6942H35.3493C36.0565 30.6942 36.6054 30.5165 36.9974 30.1611C37.3895 29.8056 37.5863 29.242 37.5863 28.4702C37.5863 27.6985 37.3895 27.1493 36.9974 26.8194Z" fill="#3D4043"/>
<path d="M52.0598 37.2446C51.1349 38.3878 49.7299 38.9594 47.845 38.9594C45.96 38.9594 44.555 38.3878 43.6301 37.2446C42.7052 36.1014 42.2428 34.726 42.2428 33.1168C42.2428 31.5348 42.7052 30.1642 43.6301 29.0034C44.555 27.8426 45.96 27.2629 47.845 27.2629C49.7299 27.2629 51.1349 27.8426 52.0598 29.0034C52.9847 30.1642 53.4471 31.5348 53.4471 33.1168C53.4487 34.7244 52.9863 36.1014 52.0598 37.2446ZM49.7668 35.6594C50.2164 35.0638 50.4404 34.2152 50.4404 33.1168C50.4404 32.0184 50.2164 31.1714 49.7668 30.5789C49.3171 29.9865 48.6738 29.6887 47.8354 29.6887C46.9969 29.6887 46.352 29.9849 45.8992 30.5789C45.4463 31.1714 45.2207 32.0184 45.2207 33.1168C45.2207 34.2152 45.4479 35.0638 45.8992 35.6594C46.352 36.2551 46.9969 36.5545 47.8354 36.5545C48.6738 36.5529 49.3171 36.2551 49.7668 35.6594Z" fill="#3D4043"/>
<path d="M61.5919 27.3589C61.6287 27.3621 61.7104 27.3669 61.8384 27.3733V30.3131C61.6575 30.2923 61.4959 30.2794 61.3551 30.273C61.2143 30.2666 61.1007 30.2634 61.0127 30.2634C59.859 30.2634 59.0845 30.6397 58.6892 31.3907C58.4684 31.8134 58.358 32.465 58.358 33.3441V38.5879H55.4713V27.6167H58.2076V29.5285C58.6508 28.7968 59.0365 28.2972 59.3645 28.0282C59.9006 27.5783 60.5982 27.3541 61.4575 27.3541C61.5087 27.3541 61.5551 27.3557 61.5919 27.3589Z" fill="#3D4043"/>
<path d="M62.392 29.7592V27.7161H63.9201V24.6562H66.7572V27.7161H68.5382V29.7592H66.7572V35.557C66.7572 36.0069 66.8148 36.2871 66.9284 36.3976C67.042 36.5081 67.3909 36.5641 67.9749 36.5641C68.0613 36.5641 68.1541 36.5625 68.2518 36.5593C68.3494 36.5561 68.4438 36.5513 68.5382 36.5449V38.6888L67.1796 38.7385C65.8243 38.7849 64.8994 38.5511 64.4034 38.034C64.0817 37.7057 63.9201 37.1982 63.9201 36.5145V29.7608H62.392V29.7592Z" fill="#3D4043"/>
<path d="M79.5217 37.2446C78.5968 38.3878 77.1919 38.9594 75.3069 38.9594C73.4219 38.9594 72.017 38.3878 71.0921 37.2446C70.1672 36.1014 69.7047 34.726 69.7047 33.1168C69.7047 31.5348 70.1672 30.1642 71.0921 29.0034C72.017 27.8426 73.4219 27.2629 75.3069 27.2629C77.1919 27.2629 78.5968 27.8426 79.5217 29.0034C80.4466 30.1642 80.9091 31.5348 80.9091 33.1168C80.9107 34.7244 80.4466 36.1014 79.5217 37.2446ZM77.2287 35.6594C77.6783 35.0638 77.9024 34.2152 77.9024 33.1168C77.9024 32.0184 77.6783 31.1714 77.2287 30.5789C76.779 29.9865 76.1358 29.6887 75.2973 29.6887C74.4588 29.6887 73.8139 29.9849 73.3611 30.5789C72.9082 31.1714 72.6826 32.0184 72.6826 33.1168C72.6826 34.2152 72.9098 35.0638 73.3611 35.6594C73.8139 36.2551 74.4588 36.5545 75.2973 36.5545C76.1358 36.5529 76.779 36.2551 77.2287 35.6594Z" fill="#3D4043"/>
<path d="M91.8814 24.0718C92.9215 24.4145 93.7632 25.0421 94.408 25.9548C94.9249 26.6929 95.2769 27.4919 95.4658 28.3501C95.653 29.21 95.7474 30.0282 95.7474 30.8063C95.7474 32.779 95.3505 34.4506 94.5601 35.8196C93.4863 37.6657 91.8286 38.588 89.5867 38.588H83.1941V23.75H89.5867C90.5052 23.7628 91.2701 23.8701 91.8814 24.0718ZM86.2008 26.3263V36.0085H89.0619C90.526 36.0085 91.5469 35.288 92.1246 33.8437C92.4398 33.0528 92.5983 32.1097 92.5983 31.0161C92.5983 29.5062 92.3614 28.3469 91.8878 27.5384C91.4141 26.7298 90.4716 26.3263 89.0619 26.3263H86.2008Z" fill="#3D4043"/>
<path d="M100.786 26.307H97.8788V23.6587H100.786V26.307ZM97.8804 27.6152H100.788V38.5863H97.8804V27.6152Z" fill="#3D4043"/>
<path d="M108.987 27.6055C109.683 27.8937 110.246 28.4237 110.675 29.1955V27.6151H113.472V38.0227C113.472 39.4381 113.234 40.5061 112.759 41.2234C111.941 42.4579 110.371 43.076 108.051 43.076C106.649 43.076 105.507 42.8006 104.62 42.2514C103.735 41.7006 103.246 40.8792 103.151 39.7856H106.27C106.35 40.1202 106.481 40.362 106.662 40.5109C106.971 40.7719 107.489 40.9032 108.221 40.9032C109.253 40.9032 109.944 40.5573 110.293 39.8656C110.52 39.4221 110.635 38.6776 110.635 37.6304V36.9259C110.36 37.395 110.066 37.7473 109.75 37.9827C109.181 38.4182 108.44 38.6375 107.528 38.6375C106.12 38.6375 104.995 38.1428 104.153 37.1533C103.311 36.1637 102.891 34.8236 102.891 33.1327C102.891 31.5027 103.295 30.1322 104.107 29.0209C104.916 27.9097 106.065 27.3557 107.553 27.3557C108.099 27.3541 108.579 27.4374 108.987 27.6055ZM109.963 35.4704C110.424 34.9645 110.655 34.1575 110.655 33.0495C110.655 32.0087 110.435 31.2177 109.998 30.6733C109.562 30.129 108.974 29.8584 108.24 29.8584C107.238 29.8584 106.547 30.3307 106.166 31.277C105.966 31.7798 105.865 32.401 105.865 33.1391C105.865 33.7764 105.972 34.3432 106.185 34.8396C106.572 35.765 107.267 36.2294 108.269 36.2294C108.939 36.231 109.502 35.978 109.963 35.4704Z" fill="#3D4043"/>
<path d="M119.094 26.307H116.186V23.6587H119.094V26.307ZM116.188 27.6152H119.095V38.5863H116.188V27.6152Z" fill="#3D4043"/>
<path d="M120.744 29.7592V27.7161H122.272V24.6562H125.109V27.7161H126.89V29.7592H125.109V35.557C125.109 36.0069 125.166 36.2871 125.28 36.3976C125.394 36.5081 125.742 36.5641 126.327 36.5641C126.413 36.5641 126.506 36.5625 126.603 36.5593C126.701 36.5561 126.795 36.5513 126.89 36.5449V38.6888L125.531 38.7385C124.176 38.7849 123.251 38.5511 122.755 38.034C122.433 37.7057 122.272 37.1982 122.272 36.5145V29.7608H120.744V29.7592Z" fill="#3D4043"/>
<path d="M133.074 31.9127C133.607 31.8455 133.99 31.7622 134.22 31.6614C134.633 31.4868 134.838 31.2146 134.838 30.8464C134.838 30.3964 134.679 30.0858 134.364 29.9161C134.049 29.7448 133.585 29.6599 132.972 29.6599C132.286 29.6599 131.799 29.828 131.514 30.1627C131.311 30.4109 131.175 30.7471 131.106 31.1698H128.34C128.4 30.2107 128.669 29.4213 129.148 28.8049C129.909 27.8394 131.215 27.3558 133.068 27.3558C134.273 27.3558 135.345 27.5944 136.281 28.07C137.217 28.5471 137.686 29.4454 137.686 30.7679V35.8004C137.686 36.1494 137.692 36.5721 137.707 37.0685C137.728 37.4448 137.784 37.6993 137.878 37.8338C137.973 37.9683 138.113 38.0788 138.301 38.1653V38.588H135.182C135.094 38.367 135.035 38.1589 135.001 37.9635C134.967 37.7682 134.94 37.5472 134.921 37.2991C134.523 37.7282 134.065 38.0948 133.545 38.3958C132.924 38.7513 132.223 38.929 131.441 38.929C130.442 38.929 129.618 38.6456 128.967 38.0788C128.316 37.512 127.991 36.7082 127.991 35.6675C127.991 34.3193 128.514 33.3426 129.562 32.7389C130.137 32.4107 130.981 32.1753 132.095 32.0344L133.074 31.9127ZM134.827 33.2513C134.643 33.365 134.457 33.4579 134.271 33.5283C134.084 33.5988 133.828 33.6644 133.502 33.7253L132.849 33.8453C132.238 33.9526 131.797 34.0839 131.532 34.2376C131.081 34.4986 130.855 34.9053 130.855 35.4561C130.855 35.9461 130.993 36.2999 131.268 36.5177C131.543 36.7354 131.879 36.8443 132.274 36.8443C132.902 36.8443 133.478 36.6634 134.006 36.3015C134.534 35.9397 134.807 35.2784 134.828 34.3193V33.2513H134.827Z" fill="#3D4043"/>
<path d="M143.115 38.5864H140.248V23.75H143.115V38.5864Z" fill="#3D4043"/>
</svg>
